<svg width="1551" height="1020" viewBox="0 0 1551 1020" fill="none" xmlns="http://www.w3.org/2000/svg">
<mask id="mask0" mask-type="alpha" maskUnits="userSpaceOnUse" x="0" y="0" width="1551" height="1020">
<path d="M1550.19 0H0.189453V1020H1550.19V0Z" fill="#00B63A"/>
</mask>
<g mask="url(#mask0)">
<path d="M19.6696 555.36C75.9296 489.27 67.9696 390.09 1.87961 333.83C-64.2104 277.57 -163.39 285.53 -219.65 351.62L19.6696 555.36Z" stroke="#4BFBA8" stroke-width="10.3386" stroke-miterlimit="10" stroke-linecap="round" stroke-linejoin="round"/>
<path d="M449.07 932.03C390.67 867.83 291.28 863.14 227.08 921.54C162.88 979.94 158.19 1079.33 216.59 1143.53L449.07 932.03Z" stroke="#4BFBA8" stroke-width="10.3386" stroke-miterlimit="10" stroke-linecap="round" stroke-linejoin="round"/>
<path d="M188.81 315.49C240.24 385.4 338.6 400.38 408.52 348.96C478.44 297.54 493.41 199.17 441.99 129.25L188.81 315.49Z" stroke="#4BFBA8" stroke-width="10.3386" stroke-miterlimit="10" stroke-linecap="round" stroke-linejoin="round"/>
<path d="M312.08 -11.08C361.65 60.16 459.59 77.72 530.83 28.15C602.07 -21.42 619.63 -119.36 570.06 -190.6L312.08 -11.08Z" stroke="#4BFBA8" stroke-width="10.3386" stroke-miterlimit="10" stroke-linecap="round" stroke-linejoin="round"/>
<path d="M1301.31 306.17C1342.32 229.68 1313.57 134.43 1237.08 93.41C1160.59 52.4 1065.34 81.15 1024.32 157.64L1301.31 306.17Z" stroke="#4BFBA8" stroke-width="10.3386" stroke-miterlimit="10" stroke-linecap="round" stroke-linejoin="round"/>
<path d="M1044.63 805.1C973.98 855.51 957.58 953.65 1007.99 1024.3C1058.4 1094.95 1156.54 1111.35 1227.19 1060.94L1044.63 805.1Z" stroke="#4BFBA8" stroke-width="10.3386" stroke-miterlimit="10" stroke-linecap="round" stroke-linejoin="round"/>
<path d="M1396.39 889.71C1449.11 958.65 1547.74 971.8 1616.68 919.07C1685.62 866.35 1698.77 767.72 1646.04 698.78L1396.39 889.71Z" stroke="#4BFBA8" stroke-width="10.3386" stroke-miterlimit="10" stroke-linecap="round" stroke-linejoin="round"/>
<path d="M141 802C183.526 802 218 767.526 218 725C218 682.474 183.526 648 141 648C98.4741 648 64 682.474 64 725C64 767.526 98.4741 802 141 802Z" stroke="#4BFBA8" stroke-width="10.3386" stroke-miterlimit="10" stroke-linecap="round" stroke-linejoin="round"/>
<path d="M64 146C106.526 146 141 111.526 141 69C141 26.4741 106.526 -8 64 -8C21.4741 -8 -13 26.4741 -13 69C-13 111.526 21.4741 146 64 146Z" stroke="#4BFBA8" stroke-width="10.3386" stroke-miterlimit="10" stroke-linecap="round" stroke-linejoin="round"/>
<path d="M806 327C848.525 327 883 292.526 883 250C883 207.474 848.525 173 806 173C763.474 173 729 207.474 729 250C729 292.526 763.474 327 806 327Z" stroke="#4BFBA8" stroke-width="10.3386" stroke-miterlimit="10" stroke-linecap="round" stroke-linejoin="round"/>
<path d="M644 842C686.525 842 721 807.526 721 765C721 722.474 686.525 688 644 688C601.474 688 567 722.474 567 765C567 807.526 601.474 842 644 842Z" stroke="#4BFBA8" stroke-width="10.3386" stroke-miterlimit="10" stroke-linecap="round" stroke-linejoin="round"/>
<path d="M1386 648C1428.53 648 1463 613.526 1463 571C1463 528.474 1428.53 494 1386 494C1343.47 494 1309 528.474 1309 571C1309 613.526 1343.47 648 1386 648Z" stroke="#4BFBA8" stroke-width="10.3386" stroke-miterlimit="10" stroke-linecap="round" stroke-linejoin="round"/>
<path d="M1499 122C1541.53 122 1576 87.5259 1576 45C1576 2.47408 1541.53 -32 1499 -32C1456.47 -32 1422 2.47408 1422 45C1422 87.5259 1456.47 122 1499 122Z" stroke="#4BFBA8" stroke-width="10.3386" stroke-miterlimit="10" stroke-linecap="round" stroke-linejoin="round"/>
</g>
</svg>
